<svg viewBox="0 0 16 16" xmlns="http://www.w3.org/2000/svg" xmlns:xlink="http://www.w3.org/1999/xlink" width="16.000000" height="16.000000" fill="none">
	<rect id="linkedin 1" width="16.000000" height="16.000000" x="-0.000061" y="0.000122" fill="rgb(255,255,255)" fill-opacity="0" />
	<path id="Vector" d="M15.996 16.0001L15.996 15.9994L16 15.9994L16 10.1314C16 7.26077 15.382 5.04944 12.026 5.04944C10.4126 5.04944 9.32997 5.93477 8.88797 6.77411L8.8413 6.77411L8.8413 5.31744L5.6593 5.31744L5.6593 15.9994L8.97264 15.9994L8.97264 10.7101C8.97264 9.31744 9.23664 7.97077 10.9613 7.97077C12.6606 7.97077 12.686 9.5601 12.686 10.7994L12.686 16.0001L15.996 16.0001Z" fill="rgb(244,244,253)" fill-rule="nonzero" />
	<path id="Vector" d="M0.263977 5.31799L3.58131 5.31799L3.58131 16L0.263977 16L0.263977 5.31799Z" fill="rgb(244,244,253)" fill-rule="nonzero" />
	<path id="Vector" d="M1.92127 0.00012207C0.860606 0.00012207 -6.10352e-05 0.860789 -6.10352e-05 1.92146C-6.10352e-05 2.98212 0.860606 3.86079 1.92127 3.86079C2.98194 3.86079 3.84261 2.98212 3.84261 1.92146C3.84194 0.860789 2.98127 0.00012207 1.92127 0.00012207L1.92127 0.00012207Z" fill="rgb(244,244,253)" fill-rule="nonzero" />
</svg>
